<?xml version="1.0" encoding="UTF-8"?>
<!DOCTYPE svg PUBLIC "-//W3C//DTD SVG 1.1//EN" "http://www.w3.org/Graphics/SVG/1.1/DTD/svg11.dtd">
<!-- Creator: CorelDRAW 2020 (64-Bit) -->
<svg xmlns="http://www.w3.org/2000/svg" xml:space="preserve" width="210mm" height="210mm" version="1.1" style="shape-rendering:geometricPrecision; text-rendering:geometricPrecision; image-rendering:optimizeQuality; fill-rule:evenodd; clip-rule:evenodd"
viewBox="0 0 21000 21000"
 xmlns:xlink="http://www.w3.org/1999/xlink"
 xmlns:xodm="http://www.corel.com/coreldraw/odm/2003">
 <defs>
  <style type="text/css">
   <![CDATA[
    .fil0 {fill:black}
    .fil1 {fill:#E9E9E9}
   ]]>
  </style>
 </defs>
 <g id="Слой_x0020_1">
  <metadata id="CorelCorpID_0Corel-Layer"/>
  <g id="_2858169293520">
   <path class="fil0" d="M4029.66 16842.48c-127.76,-161.36 -44.02,-330.12 18.04,-510.28 115.25,-334.59 250.37,-648.76 363.79,-980.11 55.96,-163.45 99.44,-356.97 158.94,-514.93 122.94,-326.34 182.81,-708.73 297.76,-1049.07 83.64,-247.63 136.43,-283.23 215.31,-455 126.35,-0.38 321.99,48.37 459.82,63.74 729.49,81.29 1461.12,-9.95 2164.74,-150.34 1027.63,-205.04 1511.31,-500.81 2284.68,-1137.93 245.5,-202.24 303.93,-343.03 527.52,-320.61 183.28,18.36 548.29,153.04 702.26,112.7 65.8,-344.99 -462.39,-211.14 -654.98,-352.26 15.45,-57.28 116.55,-216.62 155.67,-310.24 35.5,-84.89 86.65,-296.57 119.62,-351.98 221.06,-19.3 317.48,86.22 521.54,-6.26 -1.28,-348.12 -326.56,-143.29 -504.09,-255.78l-15.46 -329.61 116.33 3.08 1055.2 -49.25c994.11,-50 2508.28,327.31 3273.56,829.23 358.68,235.25 1120.42,846.12 1169.51,1271.4 -204.8,138.72 -275.65,189.87 -429.95,355.63 -247.74,266.12 -417.94,646.48 -597.43,949.1 -40.95,69.08 -132.75,181.13 -102.17,272.37 26.99,80.52 147.32,131.37 270.96,113.31 41.93,-53.7 148.36,-324.43 191.06,-408.42 125.67,-247.19 577.78,-947.36 797.8,-1018.51 39.78,106.55 95.47,192.32 132.6,323.87 63.6,225.26 141.29,1028.83 123.05,1211.8 -51.37,515.14 -297.66,940.63 -547.91,1244.79 -519.22,631.05 -1245.67,1020.17 -2302.66,1281.11 -724.01,178.74 -2540.5,419.19 -3214.99,131.59 -179.95,-76.74 -445.6,-276.65 -444.05,-471.45 1.95,-248.2 280.82,-342.58 486.05,-412.45 230.03,-78.32 461.43,-145.06 719.5,-174.18 145.06,-16.37 286.26,-21.32 434.9,-9.38 99.26,7.99 305.25,62.95 371.66,39.07 114.42,-80.22 93.47,-265.43 -57.95,-287.16 -121.22,-17.39 -326.34,-15.48 -455.48,-13.43 -284.45,4.47 -578.86,32.41 -843.23,88.26 -525.56,111.04 -1084.04,232.59 -1046.75,829.26 -489.61,17.25 -2102.5,-124.45 -2633.61,-195.06 -1462.78,-194.49 -1343.07,483.43 -1856.16,887.18 -112.83,88.78 -311.52,272.83 -459.73,63.9 -243.24,-342.86 98.15,-1399.34 196.29,-1766.32 131.33,-491.01 291.04,-1125.06 612.45,-1496.58 94.58,-109.32 317.97,-241.36 152.66,-423.92 -281.1,-58.19 -563.42,376.88 -676.26,555.46 -155.22,245.63 -244.83,594.21 -339.93,896.44 -215.09,683.56 -355.39,1286.78 -411.79,2065.79 -181.62,74.89 -407.08,-22.86 -498.69,-138.57zm1096.35 -9064.27c212.85,39.32 530.51,27.51 758.53,37.93 730.48,33.36 1404.23,28.91 2125.12,224.7 121.62,33.02 176.91,67.44 317.77,18.82 127.57,-44.03 117.76,-121.25 159.74,-241.1 119.34,-340.66 346.75,-729.15 556.36,-1007.77l270.75 -330.22c43.29,-48.5 37,-64.35 100.15,-75.45 97.67,102.04 130.96,962.26 149.35,1176.67 17.41,203.12 37.64,404.09 64.33,606.67 34.13,259.16 -22.6,320.47 136.11,516.91 102.68,127.09 225.59,208.24 307.86,365.48 214.9,410.76 455.9,1089.45 353.31,1564.04 -685.89,-2.58 -1229.89,9.62 -1920.5,53.51l-1127.64 70.73c-137.2,6.92 -278.82,-23.67 -318.96,97.83 78.22,212.41 539.13,119.05 771.44,101.89 667.98,-49.39 1977.54,-192.89 2555.32,-71.33 48,239.33 -139.21,515.51 -261.01,611.65 -207.35,-9.41 -507.19,-70.69 -716.85,-103.03 -542.13,-83.64 -1216.58,-193.63 -1756.98,-243.81 -146.59,-13.62 -264.42,-49.18 -306.18,86.74 27.93,124.21 114.86,109.08 255.77,126.48l1686.85 220.81c110.3,15.69 223.61,32.43 333.18,48.16 81.85,11.72 266.14,23.13 323.82,59.43 -237.64,358.92 -1036.96,888.21 -1500.63,1084.71 -509.89,216.12 -1551.29,403.9 -2176.38,406.35 -982.12,3.83 -2329.44,-496.4 -3149.07,-1071.28 -61.56,-43.19 -111.34,-77.82 -177.86,-131.54 -99.65,-80.48 -265.32,-214.69 -315.8,-324.64 82.38,-42.34 605.72,-123.97 732.4,-140.79 531.06,-70.5 445.71,120.41 725.97,14.2 14.47,-218.39 -307.5,-275.55 -526.75,-274.26 -315.92,1.84 -944.94,202.42 -1146.3,162.6 -67.61,-124.26 -165.58,-332.08 -170.29,-492.32 446.4,-5.83 944.2,23.47 1384.85,67.99 203.45,20.54 420.76,48.73 621.66,83.1 87.71,15 224.17,52.11 302.04,59.77 108.48,10.68 151.5,-95.74 109.42,-196.92 -120.8,-215.49 -2248.5,-170.84 -2450.88,-284.11 -33.86,-721.63 474.77,-1488.31 1050.5,-1881.68 403.11,-275.39 157.33,78.9 503.38,-752.63 139.8,-335.92 394.77,-787.87 592.23,-1081.39 54.19,-80.51 105.6,-157.33 170.17,-248.2 33.82,-47.59 54.26,-72.74 84.85,-115.82l94.68 -109.91c58.7,82.54 382.56,1137.84 424.17,1311.03zm11110.52 3611.32c-112.99,-60.4 -262.88,-361.78 -313.11,-490.29 -79.81,-204.24 -120.76,-440.23 -127.26,-678.11 -6.94,-253.88 22.52,-504.98 70.07,-734.63 19.75,-95.39 115.57,-505.7 174.76,-595.45l20.26 -22.99c93.24,195.26 268.09,491.74 465.65,571.27 -7.62,247.62 -285.09,934.94 -290.37,1950.2zm-89.04 -2716c-0.56,-115.96 210.61,-529.18 272.12,-595.28 167.08,157.32 101.33,391.12 418.26,686.27 -23.5,120.49 -144.18,369.43 -218.09,431.24 -222.35,-199.91 -78.25,-415.08 -472.29,-522.23zm438.65 -868.97c34.65,-132.3 395.46,-625.43 488.5,-714.69 141.72,65.96 362.04,676.29 416.81,837.65 -75.62,97.04 -164.83,163.94 -253.28,254.65 -47.57,48.8 -199.18,237.44 -254.49,252.62 -149.71,-238.66 -187,-477.47 -397.54,-630.23zm794.92 -968.75c122.18,-257.81 1244.09,-869.59 1822.5,-581.47 239.83,119.46 513.27,397.21 538.92,748.58 20.29,278.2 -471.95,257.46 -672.75,278.87 -110.79,11.82 -172.1,40.24 -271.72,53.67 -92.29,-226.95 -113.74,-135.72 -231.19,-572.52 -65.05,-241.9 -112.74,-391.6 -420.91,-219.96 2.7,90.07 98.89,398.42 130.64,492.19 94.13,278.11 191.55,286.72 238.3,386.36 -124.05,35.37 -263.95,88.99 -372.25,136.15 -90.51,39.41 -275.17,139.42 -358.34,156.01 -69.08,-83.38 -154.37,-318.39 -199.91,-440.41 -68.36,-183.12 -126.93,-282.13 -203.29,-437.47zm-724.91 127.36c-16.63,62.28 -64.99,87.83 -137.88,189.64 -65.49,91.43 -71.04,130.77 -153.25,174.26 -5.91,71.3 -190.16,325.58 -254.73,418.5 -19.3,72.31 -87.35,155.71 -126.4,219.3l-195.87 422.76c-52.26,120.93 -121.73,249.69 -157.96,372.57 -69.23,234.8 -139.45,462.71 -180,708.73 -47.42,287.76 -65.39,634.93 -49.47,933.24 7.35,137.54 51.85,310.02 54.68,436.6 -73.44,-38.85 -144.27,-77.96 -223.9,-121.8 -381.79,-210.3 -834.53,-383.1 -1264.42,-482.34l-723.8 -149.59c-71.81,-13.72 -75.12,-23.49 -153.67,-28.27l-294 -25.28c-89.77,-6.63 -199.63,-23.2 -305.41,-30.34 -101.31,-6.86 -229.34,-8.94 -345.39,-18.52 -311.04,-25.64 -683.69,-5.71 -984.88,17.78 -127.26,9.91 -209.86,19.56 -344.33,19.56 -32.84,-140.92 -56.9,-309.49 -104.02,-441.83l-155.94 -408.12c-186.46,-433.12 -350.09,-504.73 -421.73,-688.2 -48.95,-125.39 -96.16,-285.71 -100.77,-445.08l-163.8 -1783.08c-7.48,-142.05 53.4,-373.38 -103.09,-442.8 -72.08,-31.97 -167.25,-41.71 -240.43,-10.35 -150.02,64.32 -442.14,402.41 -570.56,539.61 -310.14,331.44 -573.81,740.78 -778.1,1150.59 -30,60.2 -74.74,131.05 -90.86,200.27l-1084.03 -116.87c-118.83,-17.43 -250.76,-23.06 -371.25,-29.03l-749.45 -51.17c-509.29,-54.6 -327.72,35.08 -578.97,-640.09 -53.77,-144.5 -267.48,-871.48 -303.67,-915.43 -62.42,-75.82 -178.59,-110.47 -295.98,-66.07 -160.51,60.72 -325.73,417.11 -439.31,561.55 -17.73,22.53 -12.15,12.97 -24.68,29.91l-62.02 101.73c-165.27,241.12 -305.4,494.3 -456.47,744.41 -158.54,262.48 -374.52,647.25 -462.25,938.81l-53.57 128.36c-73.23,113.54 -132.47,137.81 -233.31,203.38 -51.31,33.36 -42.06,49.77 -112.71,87.45 -56.87,30.33 -75.08,36.24 -129.02,71.13l-247.21 207.67c-2.36,2.97 -5.52,7.35 -7.88,10.32l-68.23 77.33c-2.25,3.13 -5.33,7.5 -7.42,10.76l-59.34 104.42c-294.53,400.31 -585.2,945.6 -585.2,1452.68 -225.02,0 -341.19,-57.9 -510.82,-107.82 -192.49,-56.65 -410.98,-15.15 -453.53,144.21 78.19,116.79 164.73,144.35 335.07,174.4 179.1,31.61 547.46,7.07 643.37,120.85 43.2,51.24 61.95,95.71 83.84,170.87 21.44,73.54 28.04,137.5 49.33,205.4 21.47,68.46 53.37,125.79 71.08,201.85 -104.81,55.46 -321.4,87.94 -468.24,114.02 -138.61,24.62 -318.86,88.96 -423.32,158.91 23.67,35.37 42.24,55.32 78.38,85.37l109.62 54.15c330.83,64 771.72,-290.54 998.06,-33.71l332.29 322.75c170.93,145.25 454.01,341.36 652.75,438.98 48.39,23.76 66.08,23.53 113.69,50.04 53.08,29.55 44.87,28.15 109.08,54.68l587.76 249.22c202.17,77.01 407.72,166.25 621.02,215.95 -1.51,4.21 -5.53,5.43 -6.41,11.76 -0.92,6.35 -5.08,9.29 -6.28,11.93 -71.71,156.84 -221.3,651.44 -271.9,838.02 -27.38,100.96 -64.12,190.86 -89.62,292.48l-351.14 1195.45c-95.04,286.12 -228.1,548.93 -303.71,842.6 -17.13,66.63 -52.84,262.13 -38.24,330.19 83.48,389 696.46,623.56 994.53,480.54 68.7,294.83 487.66,368.64 757.41,320.74 111.4,-19.8 194.05,-62.73 274.4,-125.91l473.84 -508.71c137.61,-144.37 246.74,-299 428.84,-389.95 275.49,-137.6 649.79,-39.97 957.02,-4.24 316.7,36.81 683.55,52.14 1005,86.71 245.5,26.43 1422.84,67.39 1534.48,121.31 14.6,7.05 57.35,38.95 74.84,52.52l69.86 57.5c151.48,124.75 382.57,213.07 571.91,265.08 132.42,36.4 315.83,78.85 474.83,89.21 440.67,28.71 868.11,21.45 1328.89,-0.69 341.06,-16.36 1357.27,-150.35 1676.3,-252.39 36.6,-11.72 55.01,-21.27 96.61,-30.75 46.12,-10.52 91,-14.33 123.68,-21.9 369.28,-85.43 828.7,-287.26 1157.13,-462.24 152.63,-81.31 325.23,-173.92 458.02,-287.99l39.35 -33.43c52.97,-43.13 102.27,-72.82 155.3,-117.63l86.48 -77.28c266.68,-224.21 387.13,-368.47 556.57,-662.52 41.09,-71.3 59.66,-81.63 98.16,-174.77 289.55,-700.12 279.9,-1125.98 189.52,-1861.12 -22.41,-182.33 -153.55,-590.94 -240.18,-760.55l-12.81 -23.6c-10.13,-19.9 -11.31,-23.56 -23.58,-49.19 -32.84,-68.54 -55.42,-115.23 -92.85,-180.57 -101.42,-177.12 31.18,-197.04 -51.97,-383.75 -183.64,-412.27 -182.26,-934.38 -67.57,-1407.53 33.84,-139.63 172.87,-746.82 221.04,-870.67 24.67,-63.42 48.58,-116.44 78.17,-194.78 29.65,-78.44 54.39,-132.25 85.69,-205.42 25.24,-58.97 59.93,-116.51 93.99,-178.94l73.56 -126.6c87.67,-134.16 169.52,-275.05 282.22,-390.99l18.69 -17.69c192.04,-190.95 317.52,-310.3 565.32,-453.63 375.89,-217.43 461.94,-192.62 799.55,-292.18 200.99,-59.28 738.09,-146.7 948.09,-161.82 327.38,-23.6 389.29,-409.19 281.09,-681.26 -83.41,-209.78 -170.91,-335.33 -306.84,-511.94 -127.9,-166.15 -307.38,-251.19 -495.44,-341.55 -103.99,-49.96 -314.3,-84.94 -460.67,-85.19 -378.26,-0.65 -672.88,63.56 -947.01,164.16l-276.65 123.63c-314.94,171.5 -630.56,374.14 -865.02,645.19l-93.24 88.72c-2.76,2.54 -6.67,6.24 -9.41,8.79l-47.32 43.66z"/>
   <path class="fil0" d="M12762.37 13551.85l373.42 -684.72c341.31,-569.59 681.52,-1079.74 1017.58,-1656.97 58.5,-100.5 186.79,-273.22 149.69,-382.03 -42.9,-70.94 -141.21,-98.91 -231.13,-85.9 -83.82,12.14 -113.45,101.65 -152.58,162.03 -84.96,131.08 -157.63,253.9 -242.64,394.52 -354.96,586.98 -757,1448.09 -1177.15,1970 -151.07,187.65 86.81,311.32 262.81,283.07z"/>
   <path class="fil0" d="M13139.15 10511.26c-100.23,-127.6 -293.54,-154.48 -400.79,-6.66 -87.93,121.18 -172.68,267.09 -249.95,388.25 -163.4,256.22 -331.65,500.87 -500.87,754.38 -307.69,460.99 -579.05,864.1 -866.31,1335.09 -40,65.58 -115.36,144.94 -76.7,226.53 12.13,25.59 254.08,291.69 347.06,-32.48 144.22,-502.92 1662.48,-2419.85 1747.56,-2665.11z"/>
   <path class="fil0" d="M14716.15 11260.67c-100.26,57.86 -156.14,213.18 -221.24,347.06 -273.24,561.85 -1172.33,1731.09 -1270.09,2150.54 -41.19,176.76 212.82,276.5 321.98,211.61 93.71,-55.71 12.96,-140.02 21.61,-216.6 29.82,-264.2 1287.3,-2003.42 1429.68,-2281.7 76.34,-149.22 -145.21,-289.82 -281.94,-210.91z"/>
   <path class="fil0" d="M15642.89 11860.69l-425.67 669.15c-304.24,435.4 -623.18,843.8 -881.64,1319.21 -46.7,85.89 -172.26,292.15 -151.26,387.86 17.12,77.94 287.48,270.61 326.15,130.81 73.88,-267.12 -213.9,55.43 325.87,-763.59 330.23,-501.06 587.17,-820.36 923.88,-1277.83 34.75,-47.22 221.89,-276.16 232.61,-313.37 50.23,-174.36 -263.33,-219.63 -349.94,-152.24z"/>
   <path class="fil0" d="M5983.75 10454.46c-352.45,51.91 -580.63,335.05 -464.8,531.37 91.22,154.65 524.53,273.98 802.24,235.62 834.36,-115.22 448.78,-882.74 -337.44,-766.99z"/>
   <path class="fil0" d="M5915.67 9208.82c-609.81,86.45 -446.13,601.02 -122.28,597.73 174.69,-1.78 346.12,-120.05 389.32,-252.41 68.33,-209.31 -75.39,-372.5 -267.04,-345.32z"/>
   <path class="fil0" d="M6688.4 9343.99c-556.63,191.84 -223.2,512.13 60.02,466.81 430.34,-68.85 346.21,-606.82 -60.02,-466.81z"/>
   <polygon class="fil1" points="16110.29,7745.57 16110.29,7727.38 16089.07,7742.53 "/>
   <polygon class="fil1" points="16656.15,6963.17 16656.15,6944.98 16634.93,6960.13 "/>
   <polygon class="fil1" points="16365.02,7327.07 16365.02,7308.88 16343.81,7324.04 "/>
   <path class="fil1" d="M17111.04 14932.71c1.81,1.81 5.42,-7.98 5.43,-5.43l0 0.01c-0.35,0.35 -7.24,3.61 -5.43,5.42z"/>
   <path class="fil1" d="M771.65 10693.21l5.43 -5.43c-0.36,0.36 -7.23,3.62 -5.43,5.43z"/>
   <path class="fil1" d="M3246.22 12694.69l5.42 -5.42c-0.36,0.36 -7.23,3.61 -5.42,5.42z"/>
  </g>
 </g>
</svg>
